Coordinates
version=1
nRows=11
nColumns=63
inDegrees=yes

Units are S.I. units (second, meters, Newtons, ...)
If the header above contains a line with 'inDegrees', this indicates whether rotational values are in degrees (yes) or radians (no).

endheader
time	pelvis_tilt	pelvis_list	pelvis_rotation	pelvis_tx	pelvis_ty	pelvis_tz	hip_flexion_r	hip_adduction_r	hip_rotation_r	knee_angle_r	knee_angle_r_beta	ankle_angle_r	subtalar_angle_r	mtp_angle_r	hip_flexion_l	hip_adduction_l	hip_rotation_l	knee_angle_l	knee_angle_l_beta	ankle_angle_l	subtalar_angle_l	mtp_angle_l	L5_S1_Flex_Ext	L5_S1_Lat_Bending	L5_S1_axial_rotation	L4_L5_Flex_Ext	L4_L5_Lat_Bending	L4_L5_axial_rotation	L3_L4_Flex_Ext	L3_L4_Lat_Bending	L3_L4_axial_rotation	L2_L3_Flex_Ext	L2_L3_Lat_Bending	L2_L3_axial_rotation	L1_L2_Flex_Ext	L1_L2_Lat_Bending	L1_L2_axial_rotation	L1_T12_Flex_Ext	L1_T12_Lat_Bending	L1_T12_axial_rotation	Abs_r3	Abs_r2	Abs_r1	Abs_t1	Abs_t2	neck_flexion	neck_bending	neck_rotation	arm_flex_r	arm_add_r	arm_rot_r	elbow_flex_r	pro_sup_r	wrist_flex_r	wrist_dev_r	arm_flex_l	arm_add_l	arm_rot_l	elbow_flex_l	pro_sup_l	wrist_flex_l	wrist_dev_l
      2.63333333	     17.23474690	    -27.70348180	    131.13192065	      0.29187712	      0.62344553	      0.95285055	     51.09659187	     -8.47195243	    -29.98588196	     35.46484252	      0.61897827	     38.49520648	      0.40726355	      0.00000000	     58.39212600	      1.10643254	      5.29796064	     32.84526414	      0.57325800	     31.15720050	     17.85889039	      0.00000000	     -0.48443933	      0.05953425	      3.19367404	     -0.89965227	      0.07918055	      3.39327867	     -0.79588537	      0.14475158	      3.39327867	     -0.55366571	      0.14475158	      2.79446479	     -0.44985036	      0.12140224	      2.59486016	     -0.27680863	      0.09221855	      2.39525553	     -3.46030166	      0.67346335	     17.76225691	      0.00000000	      0.00000000	     17.22970184	     -9.14964774	    -32.97903564	     24.22099052	    -39.18257375	    -26.23259457	    122.02693590	     67.80107510	      9.79615793	     13.59816025	    -79.31639251	     -1.37422595	    657.81543294	    137.09138775	     75.89609361	    -69.79496678	    -23.92379623
      2.65000000	     16.55721098	    -29.04887352	    129.95629521	      0.29325871	      0.62196412	      0.95061053	     52.43215865	     -8.66990293	    -27.79023196	     36.13476468	      0.63067062	     38.47643780	     -0.36283572	      0.00000000	     58.81269032	      1.13851447	      3.92071447	     32.78065521	      0.57213036	     31.32241583	     17.63892301	      0.00000000	     -0.46589942	     -0.14684454	      3.08881750	     -0.86522181	     -0.19530324	      3.28186859	     -0.76542615	     -0.35703781	      3.28186859	     -0.53247645	     -0.35703781	      2.70271531	     -0.43263420	     -0.29944539	      2.50966422	     -0.26621493	     -0.22746219	      2.31661313	     -3.32787296	     -1.66113480	     17.17907629	      0.00000000	      0.00000000	     17.56546409	     -7.88271602	    -32.78686831	     23.90431051	    -35.07573211	    -26.03995894	    121.37051719	     68.41099350	      9.62345984	     14.16160248	    -83.46068588	     -1.44241133	    660.49619895	    135.37311826	     73.86404634	    -69.79044682	    -23.98626004
      2.66666667	     15.97025847	    -30.40055065	    129.09122314	      0.29446147	      0.62013571	      0.94860973	     53.78645487	     -9.05265611	    -26.02617098	     36.85523006	      0.64324511	     38.53050668	     -0.90221114	      0.00000000	     59.38530250	      1.34964560	      2.77240736	     32.77620319	      0.57205266	     31.47527346	     17.43762555	      0.00000000	     -0.42261076	     -0.35318440	      2.96313520	     -0.78483045	     -0.46973525	      3.14833115	     -0.69430722	     -0.85873255	      3.14833115	     -0.48300184	     -0.85873255	      2.59274330	     -0.39243635	     -0.72021363	      2.40754735	     -0.24147979	     -0.54708264	      2.22235140	     -3.01866642	     -3.99529258	     16.48006902	      0.00000000	      0.00000000	     17.83255914	     -6.72960551	    -33.09965684	     23.03124625	    -31.05687452	    -26.21144673	    121.02817592	     68.63485319	      9.09064914	     14.67823969	    -86.17998261	     -1.12670776	    661.65843073	    133.50521003	     71.97443019	    -69.78352957	    -24.03928901
      2.68333333	     14.97936641	    -31.86558655	    127.70860092	      0.29699448	      0.61836157	      0.94582990	     55.18279460	     -9.20031453	    -23.53978317	     37.52057472	      0.65485757	     38.45921029	     -1.93942068	      0.00000000	     59.81579897	      1.38179137	      1.08614421	     32.73950457	      0.57141215	     31.68261910	     17.38188670	      0.00000000	     -0.40474208	     -0.62562071	      2.98681132	     -0.75164651	     -0.83207554	      3.17348703	     -0.66495076	     -1.52113418	      3.17348703	     -0.46257972	     -1.52113418	      2.61345991	     -0.37584349	     -1.27576574	      2.42678420	     -0.23126962	     -0.96908647	      2.24010849	     -2.89103218	     -7.07714654	     16.61174852	      0.00000000	      0.00000000	     18.34361049	     -5.21774563	    -34.88480881	     21.39501974	    -27.13880122	    -27.29712970	    121.04189601	     69.11864484	      9.11078699	     14.67312668	    -87.97093078	     -1.12802899	    661.59317194	    132.04321588	     70.03808868	    -69.77462528	    -24.07117768
      2.70000000	     14.20674264	    -32.98301599	    126.76365810	      0.29871249	      0.61682988	      0.94361285	     56.24633946	     -9.44433806	    -21.86199075	     38.10432627	      0.66504595	     38.45874634	     -2.53574669	      0.00000000	     60.19603066	      1.51489668	     -0.07073549	     32.76830788	      0.57191486	     31.82319304	     17.33593903	      0.00000000	     -0.38204630	     -0.83755624	      3.01666216	     -0.70949818	     -1.11394980	      3.20520355	     -0.62766386	     -2.03643425	      3.20520355	     -0.43664071	     -2.03643425	      2.63957939	     -0.35476819	     -1.70794469	      2.45103801	     -0.21830125	     -1.29737462	      2.26249662	     -2.72891850	     -9.47460372	     16.77776996	      0.00000000	      0.00000000	     18.68142669	     -3.93402835	    -36.22996798	     19.52744834	    -24.00874013	    -28.39583955	    121.27841149	     69.41104914	      9.60093627	     14.64936503	    -89.52488123	     -1.55548086	    661.72168179	    130.94533596	     68.36675871	    -69.76562004	    -24.09634775
      2.71666667	     13.43330705	    -33.90671889	    125.89747708	      0.30015497	      0.61554119	      0.94157348	     57.09257538	     -9.68640993	    -20.44810414	     38.60559058	      0.67379467	     38.48953273	     -2.96820362	      0.00000000	     60.46110946	      1.65960971	     -1.07709883	     32.80708284	      0.57259161	     31.93322985	     17.28784603	      0.00000000	     -0.36356584	     -1.02325536	      3.10453043	     -0.67517812	     -1.36092963	      3.29856358	     -0.59730232	     -2.48794308	      3.29856358	     -0.41551940	     -2.48794308	      2.71646413	     -0.33760724	     -2.08662233	      2.52243097	     -0.20774152	     -1.58502255	      2.32839782	     -2.59691444	    -11.57526926	     17.26646689	      0.00000000	      0.00000000	     18.86961306	     -2.70372580	    -37.34152838	     17.46525208	    -21.53341997	    -29.66552062	    121.67809401	     69.84286662	     10.83510190	     14.51378880	    -91.01588638	     -2.48654483	    661.88841870	    130.37734607	     66.97928643	    -69.75746674	    -24.10699580
      2.73333333	     12.96953409	    -34.47307010	    125.41727074	      0.30062161	      0.61452826	      0.94006889	     57.60403001	     -9.94217312	    -19.78072480	     38.98518580	      0.68041985	     38.61320946	     -2.95348222	      0.00000000	     60.68272830	      1.81060620	     -1.56868326	     32.95176582	      0.57511681	     32.07034353	     17.13838512	      0.00000000	     -0.33758737	     -1.13575888	      3.20605948	     -0.62693351	     -1.51055931	      3.40643820	     -0.55462230	     -2.76148414	      3.40643820	     -0.38582861	     -2.76148414	      2.80530205	     -0.31348363	     -2.31603951	      2.60492333	     -0.19289743	     -1.75929050	      2.40454461	     -2.41135285	    -12.84793159	     17.83114101	      0.00000000	      0.00000000	     18.79107184	     -1.70500690	    -37.91786800	     15.36518600	    -19.88317214	    -30.90454143	    122.10859796	     70.53428295	     12.55560202	     14.34039678	    -93.20452622	     -4.17936730	    663.09320210	    130.26250661	     66.01138084	    -69.75134855	    -24.11253714
      2.75000000	     12.25192728	    -34.93166753	    124.71447778	      0.30120205	      0.61396408	      0.93834197	     57.93280101	    -10.17875242	    -18.95654948	     39.32326273	      0.68632041	     38.80668323	     -2.93193244	      0.00000000	     60.64146412	      1.94873664	     -2.17923604	     32.99812560	      0.57592594	     32.21486123	     17.06336090	      0.00000000	     -0.33835778	     -1.25477381	      3.34157287	     -0.62836423	     -1.66884917	      3.55042117	     -0.55588799	     -3.05085705	      3.55042117	     -0.38670910	     -3.05085705	      2.92387626	     -0.31419903	     -2.55873476	      2.71502795	     -0.19333763	     -1.94364464	      2.50617965	     -2.41685577	    -14.19425233	     18.58482581	      0.00000000	      0.00000000	     18.73250197	     -0.66841563	    -38.57954921	     13.49674010	    -18.50315866	    -32.21947705	    122.39589238	     72.29916961	     14.88286180	     13.78245015	    -96.14608183	     -6.51373907	    664.88686210	    130.47283600	     65.48070340	    -69.74643975	    -24.10988446
      2.76666667	     11.81723256	    -35.15771929	    124.28734783	      0.30124306	      0.61380355	      0.93681924	     58.03570768	    -10.34936309	    -18.60459458	     39.50935241	      0.68956828	     38.98118156	     -2.70288751	      0.00000000	     60.55044265	      2.02866564	     -2.49140856	     33.03279898	      0.57653110	     32.42012655	     16.95444031	      0.00000000	     -0.33381790	     -1.32418976	      3.45697072	     -0.61993321	     -1.76117238	      3.67303139	     -0.54842942	     -3.21963497	      3.67303139	     -0.38152047	     -3.21963497	      3.02484938	     -0.30998330	     -2.70028775	      2.80878871	     -0.19074355	     -2.05116993	      2.59272804	     -2.38442784	    -14.97949936	     19.22663406	      0.00000000	      0.00000000	     18.83092927	      0.28609359	    -38.97557051	     11.87190032	    -17.49197041	    -33.49382097	    122.53146985	     76.06924480	     17.03457462	     12.07079692	    -99.35080302	     -9.17243973	    667.22344845	    130.69128777	     65.59545172	    -69.74543396	    -24.09969098
      2.78333333	     11.60919385	    -34.98239354	    124.23068593	      0.30062939	      0.61408607	      0.93563888	     57.73752470	    -10.51639519	    -18.73083334	     39.61953896	      0.69149140	     39.31320929	     -2.29926714	      0.00000000	     60.33350961	      2.13487989	     -2.27338183	     33.22862623	      0.57994893	     32.70967161	     16.82010524	      0.00000000	     -0.35234659	     -1.33729469	      3.51564182	     -0.65434286	     -1.77860193	      3.73536944	     -0.57887022	     -3.25149830	      3.73536944	     -0.40269692	     -3.25149830	      3.07618660	     -0.32718904	     -2.72701132	      2.85645898	     -0.20133084	     -2.07146947	      2.63673137	     -2.51677647	    -15.12774495	     19.55294514	      0.00000000	      0.00000000	     19.06329283	      1.39307670	    -38.88564428	     10.65133859	    -16.95340752	    -34.40036340	    122.63467692	     77.89997009	     17.92986363	     11.59794329	   -101.72023470	    -11.36923338	    669.15567186	    130.85430299	     66.00810863	    -69.74616197	    -24.13766942
      2.80000000	     11.76608487	    -35.01247306	    124.25878648	      0.29962095	      0.61440815	      0.93555666	     57.72468611	    -10.62951292	    -19.25827590	     39.58327310	      0.69085844	     39.39893089	     -1.57290944	      0.00000000	     60.36472319	      2.13497629	     -2.08536179	     33.12617517	      0.57816083	     32.73527726	     16.54606077	      0.00000000	     -0.32208289	     -1.31810626	      3.57549191	     -0.59814013	     -1.75308132	      3.79896015	     -0.52914997	     -3.20484356	      3.79896015	     -0.36810853	     -3.20484356	      3.12855542	     -0.29908617	     -2.68788228	      2.90508717	     -0.18403816	     -2.04174660	      2.68161893	     -2.30060585	    -14.91068162	     19.88581334	      0.00000000	      0.00000000	     19.15957623	      1.07622298	    -39.31635911	      9.77001988	    -16.82382498	    -35.40796247	    122.78759933	     82.75551462	     19.13326358	      9.66701040	   -103.93328312	    -13.89772323	    671.69589083	    130.28446594	     67.84172110	    -69.75594802	    -24.14650848
